<svg width="150" height="150" viewBox="0 0 150 150" fill="none" xmlns="http://www.w3.org/2000/svg">
<path fill-rule="evenodd" clip-rule="evenodd" d="M129.562 44.5L128.688 42.9375C127.559 41.048 125.967 39.4777 124.062 38.375L82.125 14.1875C80.226 13.0859 78.0704 12.5039 75.875 12.5H74.0625C71.8671 12.5039 69.7115 13.0859 67.8125 14.1875L25.875 38.4375C23.9811 39.5328 22.4078 41.1061 21.3125 43L20.4375 44.5625C19.3359 46.4615 18.7539 48.6171 18.75 50.8125V99.25C18.7539 101.445 19.3359 103.601 20.4375 105.5L21.3125 107.062C22.4362 108.934 24.003 110.501 25.875 111.625L67.875 135.812C69.7644 136.937 71.9264 137.521 74.125 137.5H75.875C78.0704 137.496 80.226 136.914 82.125 135.812L124.062 111.562C125.975 110.492 127.554 108.913 128.625 107L129.562 105.438C130.651 103.533 131.232 101.381 131.25 99.1875V50.75C131.246 48.5546 130.664 46.399 129.562 44.5ZM74.0625 25H75.875L112.5 46.125L75 67.75L37.5 46.125L74.0625 25ZM81.25 121.875L117.812 100.75L118.75 99.1874V56.9374L81.25 78.6249V121.875Z" fill="white"/>
</svg>
