<?xml version="1.0" encoding="utf-8"?>
<!-- Generator: Adobe Illustrator 28.2.0, SVG Export Plug-In . SVG Version: 6.00 Build 0)  -->
<svg version="1.1" id="Layer_1" xmlns="http://www.w3.org/2000/svg" xmlns:xlink="http://www.w3.org/1999/xlink" x="0px" y="0px"
	 viewBox="0 0 424.8 208.8" style="enable-background:new 0 0 424.8 208.8;" xml:space="preserve">
<path d="M90.9,104h16c1.4,0,2.5-1.1,2.5-2.5s-1.1-2.5-2.5-2.5h-16c-1.4,0-2.5,1.1-2.5,2.5S89.5,104,90.9,104z"/>
<path d="M317.9,104h16c1.4,0,2.5-1.1,2.5-2.5s-1.1-2.5-2.5-2.5h-16c-1.4,0-2.5,1.1-2.5,2.5S316.5,104,317.9,104z"/>
<path d="M423.3,0H1.5C0.7,0,0,0.7,0,1.5v15.1c0,0.8,0.7,1.5,1.5,1.5h9.7v168.3h17.5c-4.1,1.8-7,5.9-7,10.7c0,6.5,5.2,11.7,11.7,11.7
	s11.7-5.2,11.7-11.7c0-4.8-2.9-8.9-7-10.7h348.6c-4.1,1.8-7,5.9-7,10.7c0,6.5,5.2,11.7,11.7,11.7s11.7-5.2,11.7-11.7
	c0-4.8-2.9-8.9-7-10.7h17.5V18.1h9.7c0.8,0,1.5-0.7,1.5-1.5V1.5C424.8,0.7,424.1,0,423.3,0L423.3,0z M121.1,172.3H25.3V29.7h95.8
	V172.3z M288.6,172.3H136.2v-80h152.4V172.3z M398.5,172.3h-94.9V29.7h94.9V172.3z M288.6,78.1H136.2v-60h152.4V78.1z"/>
<path d="M212.4,125c1.4,0,2.5-1.1,2.5-2.5v-16c0-1.4-1.1-2.5-2.5-2.5s-2.5,1.1-2.5,2.5v16C209.9,123.8,211,125,212.4,125z"/>
</svg>
