<?xml version="1.0" encoding="utf-8"?>
<!-- Generator: Adobe Illustrator 28.2.0, SVG Export Plug-In . SVG Version: 6.00 Build 0)  -->
<svg version="1.1" id="Layer_1" xmlns="http://www.w3.org/2000/svg" xmlns:xlink="http://www.w3.org/1999/xlink" x="0px" y="0px"
	 viewBox="0 0 424.8 209.8" style="enable-background:new 0 0 424.8 209.8;" xml:space="preserve">
<path d="M90.9,104h16c1.4,0,2.5-1.1,2.5-2.5s-1.1-2.5-2.5-2.5h-16c-1.4,0-2.5,1.1-2.5,2.5S89.5,104,90.9,104z"/>
<path d="M120.1,30.2H27.3c-1.4,0-2.5,1.1-2.5,2.5v137.6c0,1.4,1.1,2.5,2.5,2.5h92.8c1.4,0,2.5-1.1,2.5-2.5V32.7
	C122.6,31.3,121.5,30.2,120.1,30.2L120.1,30.2z M117.6,167.8H29.8V35.2h87.8V167.8z"/>
<path d="M304.7,172.8h92.9c1.4,0,2.5-1.1,2.5-2.5V32.7c0-1.4-1.1-2.5-2.5-2.5h-92.9c-1.4,0-2.5,1.1-2.5,2.5v137.6
	C302.2,171.6,303.3,172.8,304.7,172.8z M307.2,35.2H395v132.6h-87.9V35.2L307.2,35.2z"/>
<path d="M333.9,99h-16c-1.4,0-2.5,1.1-2.5,2.5s1.1,2.5,2.5,2.5h16c1.4,0,2.5-1.1,2.5-2.5S335.3,99,333.9,99z"/>
<path d="M1.5,18.1h7.2v168.3c0,1.4,1.1,2.5,2.5,2.5h15c-2.7,2.1-4.5,5.5-4.5,9.2c0,6.5,5.2,11.7,11.7,11.7s11.7-5.2,11.7-11.7
	c0-3.8-1.8-7.1-4.5-9.2h343.6c-2.7,2.1-4.5,5.5-4.5,9.2c0,6.5,5.2,11.7,11.7,11.7s11.7-5.2,11.7-11.7c0-3.8-1.8-7.1-4.5-9.2h15
	c1.4,0,2.5-1.1,2.5-2.5V18.1h7.2c0.8,0,1.5-0.7,1.5-1.5V1.5c0-0.8-0.7-1.5-1.5-1.5H1.5C0.7,0,0,0.7,0,1.5v15.1
	C0,17.4,0.7,18.1,1.5,18.1L1.5,18.1z M411.1,183.8H13.7V19.1h120v58c0,1.4,1.1,2.5,2.5,2.5h152.4c1.4,0,2.5-1.1,2.5-2.5v-58h120
	L411.1,183.8L411.1,183.8z M286.1,74.6H138.7V18.1h147.4V74.6z"/>
<path d="M288.6,90.7H136.2c-1.4,0-2.5,1.1-2.5,2.5v77c0,1.4,1.1,2.5,2.5,2.5h152.4c1.4,0,2.5-1.1,2.5-2.5v-77
	C291.1,91.8,290,90.7,288.6,90.7L288.6,90.7z M286.1,167.8H138.7v-72h147.4V167.8z"/>
<path d="M212.4,125c1.4,0,2.5-1.1,2.5-2.5v-16c0-1.4-1.1-2.5-2.5-2.5s-2.5,1.1-2.5,2.5v16C209.9,123.8,211,125,212.4,125z"/>
</svg>
