<?xml version="1.0" encoding="UTF-8"?>
<svg id="Layer_2" data-name="Layer 2" xmlns="http://www.w3.org/2000/svg" viewBox="0 0 362 74">
  <defs>
    <style>
      .cls-1 {
        fill: #fff;
      }

      .cls-1, .cls-2 {
        stroke-width: 0px;
      }

      .cls-2 {
        fill: #003165;
      }
    </style>
  </defs>
  <g id="Layer_2-2" data-name="Layer 2">
    <g>
      <g>
        <rect class="cls-2" width="362" height="74" rx="3.6" ry="3.6"/>
        <rect class="cls-1" x="3" y="3" width="356" height="68" rx="3" ry="3"/>
        <g>
          <rect class="cls-1" x="4.75" y="4.75" width="352.5" height="64.5" rx="1.75" ry="1.75"/>
          <path class="cls-2" d="m355.5,5c.83,0,1.5.67,1.5,1.5v61c0,.83-.67,1.5-1.5,1.5H6.5c-.83,0-1.5-.67-1.5-1.5V6.5c0-.83.67-1.5,1.5-1.5h349m0-.5H6.5c-1.1,0-2,.9-2,2v61c0,1.1.9,2,2,2h349c1.1,0,2-.9,2-2V6.5c0-1.1-.9-2-2-2h0Z"/>
        </g>
      </g>
      <g>
        <path class="cls-2" d="m334.16,25.87c-2.45,0-3.73,1.28-3.73,3.06,0,2.45,2.4,3.22,5.72,4.85,6.08,2.91,9.85,5.56,9.85,11.38,0,7.5-6.33,11.28-13.73,11.28-4.17,0-8.68-1.26-12.49-3.58-.19-.11-.27-.35-.2-.55l2.25-6.75c.09-.28.42-.4.68-.25,2.97,1.73,6.98,2.97,9.97,2.97,2.5,0,4.34-.87,4.34-3.01,0-2.6-2.71-3.78-6.13-5.56-5.36-2.76-9.44-5.26-9.44-10.82,0-6.08,4.8-10.93,12.76-10.93,3.02,0,6.67.77,10.61,2.49.21.09.33.32.27.55l-1.8,7.43c-.07.3-.42.44-.69.29-3.48-2.01-6.29-2.84-8.23-2.84Z"/>
        <path class="cls-2" d="m299.98,25.87c-2.45,0-3.73,1.28-3.73,3.06,0,2.45,2.4,3.22,5.72,4.85,6.08,2.91,9.85,5.56,9.85,11.38,0,7.5-6.33,11.28-13.73,11.28-4.17,0-8.68-1.26-12.49-3.58-.19-.11-.27-.35-.2-.55l2.25-6.75c.09-.28.42-.4.68-.25,2.97,1.73,6.98,2.97,9.97,2.97,2.5,0,4.34-.87,4.34-3.01,0-2.6-2.71-3.78-6.13-5.56-5.36-2.76-9.44-5.26-9.44-10.82,0-6.08,4.8-10.93,12.76-10.93,3.02,0,6.67.77,10.61,2.49.21.09.33.32.27.55l-1.8,7.43c-.07.3-.42.44-.69.29-3.48-2.01-6.29-2.84-8.23-2.84Z"/>
        <path class="cls-2" d="m275.17,48.55v6.82c0,.26-.21.47-.47.47h-22.04c-.26,0-.47-.21-.47-.47V19.04c0-.26.21-.47.47-.47h21.78c.26,0,.47.21.47.47v6.82c0,.26-.21.47-.47.47h-13.1c-.26,0-.47.21-.47.47v5.75c0,.26.21.47.47.47h11.83c.26,0,.47.21.47.47v6.82c0,.26-.21.47-.47.47h-11.83c-.26,0-.47.21-.47.47v6.36c0,.26.21.47.47.47h13.36c.26,0,.47.21.47.47Z"/>
        <path class="cls-2" d="m218.51,55.25V18.92c0-.26.21-.47.47-.47h7.74c.26,0,.47.21.47.47v28.57c0,.26.21.47.47.47h13.87c.26,0,.47.21.47.47v6.82c0,.26-.21.47-.47.47h-22.55c-.26,0-.47-.21-.47-.47Z"/>
        <path class="cls-2" d="m197.96,55.37v-14.12c0-.26-.21-.47-.47-.47h-13.46c-.26,0-.47.21-.47.47v14.12c0,.26-.21.47-.47.47h-7.74c-.26,0-.47-.21-.47-.47V19.04c0-.26.21-.47.47-.47h7.74c.26,0,.47.21.47.47v13.51c0,.26.21.47.47.47h13.46c.26,0,.47-.21.47-.47v-13.51c0-.26.21-.47.47-.47h7.74c.26,0,.47.21.47.47v36.33c0,.26-.21.47-.47.47h-7.74c-.26,0-.47-.21-.47-.47Z"/>
        <path class="cls-2" d="m162.1,28.46c-.12.27-.45.36-.69.19-2.43-1.71-5.47-2.93-8.73-2.93-6.38,0-10.06,4.59-10.06,11.49s3.68,11.49,10.06,11.49c3.08,0,6.15-1.04,8.72-2.87.24-.17.58-.09.7.19l2.68,6.25c.09.21.02.45-.16.58-3.19,2.17-7.55,3.61-12.4,3.61-11.23,0-18.84-7.71-18.84-19.25s7.61-19.25,18.84-19.25c4.94,0,9.36,1.48,12.5,3.71.18.13.24.37.15.58l-2.78,6.22Z"/>
        <path class="cls-2" d="m117.5,26.8v28.57c0,.26-.21.47-.47.47h-7.74c-.26,0-.47-.21-.47-.47v-28.57c0-.26-.21-.47-.47-.47h-10.04c-.26,0-.47-.21-.47-.47v-6.82c0-.26.21-.47.47-.47h29.7c.26,0,.47.21.47.47v6.82c0,.26-.21.47-.47.47h-10.04c-.26,0-.47.21-.47.47Z"/>
        <path class="cls-2" d="m96.72,55.18l-16.56-37.63h-1.02l-16.56,37.63c-.14.31.09.66.43.66h7.65c.19,0,.36-.11.43-.29l1.95-4.64c.07-.17.24-.29.43-.29h12.35c.19,0,.36.11.43.29l1.95,4.64c.07.17.24.29.43.29h7.65c.34,0,.56-.35.43-.66Zm-14.5-12.31h-5.13c-.33,0-.56-.34-.43-.65l2.57-6.17c.16-.38.7-.38.86,0l2.57,6.17c.13.31-.1.65-.43.65Z"/>
        <path class="cls-2" d="m46.58,55.4l-.91-13.43c-.03-.42-.56-.59-.83-.26l-8.95,11.07h-.51l-8.95-11.07c-.27-.33-.8-.16-.83.26l-.91,13.43c-.02.25-.22.44-.47.44h-7.75c-.27,0-.48-.23-.47-.49l2.02-37.39h.51l16.74,21.08c.19.24.55.24.73,0l16.74-21.08h.51l2.02,37.39c.01.27-.2.49-.47.49h-7.75c-.25,0-.45-.19-.47-.44Z"/>
      </g>
    </g>
  </g>
</svg>